<mxfile host="Electron" modified="2024-02-05T09:42:21.310Z" agent="Mozilla/5.0 (Windows NT 10.0; Win64; x64) AppleWebKit/537.36 (KHTML, like Gecko) draw.io/23.0.2 Chrome/120.0.6099.109 Electron/28.1.0 Safari/537.36" etag="dA5blGHAQeLIV5Zjm8xg" version="23.0.2" type="device">
  <diagram id="C5RBs43oDa-KdzZeNtuy" name="Page-1">
    <mxGraphModel dx="1434" dy="836" grid="1" gridSize="10" guides="1" tooltips="1" connect="1" arrows="1" fold="1" page="1" pageScale="1" pageWidth="1169" pageHeight="1654" math="0" shadow="0">
      <root>
        <mxCell id="WIyWlLk6GJQsqaUBKTNV-0" />
        <mxCell id="WIyWlLk6GJQsqaUBKTNV-1" parent="WIyWlLk6GJQsqaUBKTNV-0" />
        <mxCell id="07kH8OeIRkijaCUYoFbz-2" style="edgeStyle=orthogonalEdgeStyle;rounded=0;orthogonalLoop=1;jettySize=auto;html=1;exitX=0.5;exitY=1;exitDx=0;exitDy=0;entryX=0.5;entryY=0;entryDx=0;entryDy=0;" edge="1" parent="WIyWlLk6GJQsqaUBKTNV-1" source="07kH8OeIRkijaCUYoFbz-0" target="07kH8OeIRkijaCUYoFbz-1">
          <mxGeometry relative="1" as="geometry" />
        </mxCell>
        <mxCell id="07kH8OeIRkijaCUYoFbz-0" value="int main() {" style="ellipse;whiteSpace=wrap;html=1;" vertex="1" parent="WIyWlLk6GJQsqaUBKTNV-1">
          <mxGeometry x="130" y="80" width="120" height="80" as="geometry" />
        </mxCell>
        <mxCell id="07kH8OeIRkijaCUYoFbz-22" value="" style="edgeStyle=orthogonalEdgeStyle;rounded=0;orthogonalLoop=1;jettySize=auto;html=1;" edge="1" parent="WIyWlLk6GJQsqaUBKTNV-1" source="07kH8OeIRkijaCUYoFbz-1" target="07kH8OeIRkijaCUYoFbz-21">
          <mxGeometry relative="1" as="geometry" />
        </mxCell>
        <mxCell id="07kH8OeIRkijaCUYoFbz-1" value="srand(time(NULL));&lt;br&gt;setlocale(LC_ALL, &quot;RU&quot;;&lt;br&gt;" style="rounded=0;whiteSpace=wrap;html=1;align=left;" vertex="1" parent="WIyWlLk6GJQsqaUBKTNV-1">
          <mxGeometry x="110" y="180" width="160" height="50" as="geometry" />
        </mxCell>
        <mxCell id="07kH8OeIRkijaCUYoFbz-4" value="" style="endArrow=none;html=1;rounded=0;" edge="1" parent="WIyWlLk6GJQsqaUBKTNV-1">
          <mxGeometry width="50" height="50" relative="1" as="geometry">
            <mxPoint x="350" y="200" as="sourcePoint" />
            <mxPoint x="350" y="40" as="targetPoint" />
          </mxGeometry>
        </mxCell>
        <mxCell id="07kH8OeIRkijaCUYoFbz-5" value="" style="endArrow=none;dashed=1;html=1;dashPattern=1 3;strokeWidth=2;rounded=0;entryX=1;entryY=0.5;entryDx=0;entryDy=0;" edge="1" parent="WIyWlLk6GJQsqaUBKTNV-1" target="07kH8OeIRkijaCUYoFbz-0">
          <mxGeometry width="50" height="50" relative="1" as="geometry">
            <mxPoint x="350" y="120" as="sourcePoint" />
            <mxPoint x="390" y="400" as="targetPoint" />
          </mxGeometry>
        </mxCell>
        <mxCell id="07kH8OeIRkijaCUYoFbz-6" value="&lt;div style=&quot;text-align: left;&quot;&gt;&lt;span style=&quot;background-color: initial;&quot;&gt;#include &amp;lt;iostream&amp;gt;&lt;/span&gt;&lt;/div&gt;&lt;div style=&quot;text-align: left;&quot;&gt;&lt;span style=&quot;background-color: initial;&quot;&gt;#include &amp;lt;ctime&amp;gt;&lt;/span&gt;&lt;/div&gt;&lt;div style=&quot;text-align: left;&quot;&gt;const int n = 10;&lt;/div&gt;&lt;div style=&quot;text-align: left;&quot;&gt;int a[n];&lt;/div&gt;&lt;div style=&quot;text-align: left;&quot;&gt;int temp, k;&lt;/div&gt;" style="text;html=1;align=center;verticalAlign=middle;resizable=0;points=[];autosize=1;strokeColor=none;fillColor=none;" vertex="1" parent="WIyWlLk6GJQsqaUBKTNV-1">
          <mxGeometry x="350" y="60" width="130" height="90" as="geometry" />
        </mxCell>
        <mxCell id="07kH8OeIRkijaCUYoFbz-10" value="" style="edgeStyle=orthogonalEdgeStyle;rounded=0;orthogonalLoop=1;jettySize=auto;html=1;" edge="1" parent="WIyWlLk6GJQsqaUBKTNV-1" source="07kH8OeIRkijaCUYoFbz-7" target="07kH8OeIRkijaCUYoFbz-9">
          <mxGeometry relative="1" as="geometry" />
        </mxCell>
        <mxCell id="07kH8OeIRkijaCUYoFbz-45" style="edgeStyle=orthogonalEdgeStyle;rounded=0;orthogonalLoop=1;jettySize=auto;html=1;exitX=1;exitY=0.5;exitDx=0;exitDy=0;entryX=0.5;entryY=0;entryDx=0;entryDy=0;" edge="1" parent="WIyWlLk6GJQsqaUBKTNV-1" source="07kH8OeIRkijaCUYoFbz-7" target="07kH8OeIRkijaCUYoFbz-44">
          <mxGeometry relative="1" as="geometry" />
        </mxCell>
        <mxCell id="07kH8OeIRkijaCUYoFbz-7" value="for (int i = 0; i &amp;lt; n; i++) {" style="shape=hexagon;perimeter=hexagonPerimeter2;whiteSpace=wrap;html=1;fixedSize=1;align=center;rounded=0;" vertex="1" parent="WIyWlLk6GJQsqaUBKTNV-1">
          <mxGeometry x="80" y="310" width="220" height="35" as="geometry" />
        </mxCell>
        <mxCell id="07kH8OeIRkijaCUYoFbz-12" value="" style="edgeStyle=orthogonalEdgeStyle;rounded=0;orthogonalLoop=1;jettySize=auto;html=1;" edge="1" parent="WIyWlLk6GJQsqaUBKTNV-1" source="07kH8OeIRkijaCUYoFbz-9" target="07kH8OeIRkijaCUYoFbz-11">
          <mxGeometry relative="1" as="geometry" />
        </mxCell>
        <mxCell id="07kH8OeIRkijaCUYoFbz-9" value="a[i] = rand() % 50;" style="whiteSpace=wrap;html=1;rounded=0;" vertex="1" parent="WIyWlLk6GJQsqaUBKTNV-1">
          <mxGeometry x="130" y="365" width="120" height="30" as="geometry" />
        </mxCell>
        <mxCell id="07kH8OeIRkijaCUYoFbz-13" style="edgeStyle=orthogonalEdgeStyle;rounded=0;orthogonalLoop=1;jettySize=auto;html=1;exitX=0.5;exitY=1;exitDx=0;exitDy=0;entryX=0;entryY=0.5;entryDx=0;entryDy=0;" edge="1" parent="WIyWlLk6GJQsqaUBKTNV-1" source="07kH8OeIRkijaCUYoFbz-11" target="07kH8OeIRkijaCUYoFbz-7">
          <mxGeometry relative="1" as="geometry" />
        </mxCell>
        <mxCell id="07kH8OeIRkijaCUYoFbz-11" value="cout&amp;lt;&amp;lt;a[i]&amp;lt;&amp;lt;&quot; &quot;;" style="shape=parallelogram;perimeter=parallelogramPerimeter;whiteSpace=wrap;html=1;fixedSize=1;rounded=0;" vertex="1" parent="WIyWlLk6GJQsqaUBKTNV-1">
          <mxGeometry x="110" y="415" width="160" height="30" as="geometry" />
        </mxCell>
        <mxCell id="07kH8OeIRkijaCUYoFbz-26" value="" style="edgeStyle=orthogonalEdgeStyle;rounded=0;orthogonalLoop=1;jettySize=auto;html=1;" edge="1" parent="WIyWlLk6GJQsqaUBKTNV-1" source="07kH8OeIRkijaCUYoFbz-14" target="07kH8OeIRkijaCUYoFbz-25">
          <mxGeometry relative="1" as="geometry" />
        </mxCell>
        <mxCell id="07kH8OeIRkijaCUYoFbz-35" value="" style="edgeStyle=orthogonalEdgeStyle;rounded=0;orthogonalLoop=1;jettySize=auto;html=1;" edge="1" parent="WIyWlLk6GJQsqaUBKTNV-1" source="07kH8OeIRkijaCUYoFbz-14" target="07kH8OeIRkijaCUYoFbz-34">
          <mxGeometry relative="1" as="geometry" />
        </mxCell>
        <mxCell id="07kH8OeIRkijaCUYoFbz-14" value="for (int i = 0; i &amp;lt; k; i++) {" style="shape=hexagon;perimeter=hexagonPerimeter2;whiteSpace=wrap;html=1;fixedSize=1;rounded=0;" vertex="1" parent="WIyWlLk6GJQsqaUBKTNV-1">
          <mxGeometry x="340" y="460" width="170" height="30" as="geometry" />
        </mxCell>
        <mxCell id="07kH8OeIRkijaCUYoFbz-16" value="}" style="text;html=1;align=center;verticalAlign=middle;resizable=0;points=[];autosize=1;strokeColor=none;fillColor=none;" vertex="1" parent="WIyWlLk6GJQsqaUBKTNV-1">
          <mxGeometry x="195" y="448" width="30" height="30" as="geometry" />
        </mxCell>
        <mxCell id="07kH8OeIRkijaCUYoFbz-24" style="edgeStyle=orthogonalEdgeStyle;rounded=0;orthogonalLoop=1;jettySize=auto;html=1;exitX=0.5;exitY=1;exitDx=0;exitDy=0;entryX=0.5;entryY=0;entryDx=0;entryDy=0;" edge="1" parent="WIyWlLk6GJQsqaUBKTNV-1" source="07kH8OeIRkijaCUYoFbz-21" target="07kH8OeIRkijaCUYoFbz-7">
          <mxGeometry relative="1" as="geometry" />
        </mxCell>
        <mxCell id="07kH8OeIRkijaCUYoFbz-21" value="cin&amp;gt;&amp;gt;k;" style="shape=parallelogram;perimeter=parallelogramPerimeter;whiteSpace=wrap;html=1;fixedSize=1;rounded=0;" vertex="1" parent="WIyWlLk6GJQsqaUBKTNV-1">
          <mxGeometry x="110" y="250" width="160" height="30" as="geometry" />
        </mxCell>
        <mxCell id="07kH8OeIRkijaCUYoFbz-28" value="" style="edgeStyle=orthogonalEdgeStyle;rounded=0;orthogonalLoop=1;jettySize=auto;html=1;" edge="1" parent="WIyWlLk6GJQsqaUBKTNV-1" source="07kH8OeIRkijaCUYoFbz-25" target="07kH8OeIRkijaCUYoFbz-27">
          <mxGeometry relative="1" as="geometry" />
        </mxCell>
        <mxCell id="07kH8OeIRkijaCUYoFbz-25" value="a[o] = temp;" style="whiteSpace=wrap;html=1;rounded=0;" vertex="1" parent="WIyWlLk6GJQsqaUBKTNV-1">
          <mxGeometry x="372.5" y="529" width="105" height="29" as="geometry" />
        </mxCell>
        <mxCell id="07kH8OeIRkijaCUYoFbz-30" value="" style="edgeStyle=orthogonalEdgeStyle;rounded=0;orthogonalLoop=1;jettySize=auto;html=1;" edge="1" parent="WIyWlLk6GJQsqaUBKTNV-1" source="07kH8OeIRkijaCUYoFbz-27" target="07kH8OeIRkijaCUYoFbz-29">
          <mxGeometry relative="1" as="geometry" />
        </mxCell>
        <mxCell id="07kH8OeIRkijaCUYoFbz-33" style="edgeStyle=orthogonalEdgeStyle;rounded=0;orthogonalLoop=1;jettySize=auto;html=1;exitX=1;exitY=0.5;exitDx=0;exitDy=0;entryX=0;entryY=0.5;entryDx=0;entryDy=0;" edge="1" parent="WIyWlLk6GJQsqaUBKTNV-1" source="07kH8OeIRkijaCUYoFbz-27" target="07kH8OeIRkijaCUYoFbz-14">
          <mxGeometry relative="1" as="geometry">
            <Array as="points">
              <mxPoint x="530" y="617" />
              <mxPoint x="530" y="730" />
              <mxPoint x="300" y="730" />
              <mxPoint x="300" y="475" />
            </Array>
          </mxGeometry>
        </mxCell>
        <mxCell id="07kH8OeIRkijaCUYoFbz-27" value="for (int j = 0; j &amp;lt; n-1; j++) {" style="shape=hexagon;perimeter=hexagonPerimeter2;whiteSpace=wrap;html=1;fixedSize=1;rounded=0;" vertex="1" parent="WIyWlLk6GJQsqaUBKTNV-1">
          <mxGeometry x="340" y="604.5" width="170" height="25.5" as="geometry" />
        </mxCell>
        <mxCell id="07kH8OeIRkijaCUYoFbz-31" style="edgeStyle=orthogonalEdgeStyle;rounded=0;orthogonalLoop=1;jettySize=auto;html=1;exitX=0.5;exitY=1;exitDx=0;exitDy=0;entryX=0;entryY=0.5;entryDx=0;entryDy=0;" edge="1" parent="WIyWlLk6GJQsqaUBKTNV-1" source="07kH8OeIRkijaCUYoFbz-29" target="07kH8OeIRkijaCUYoFbz-27">
          <mxGeometry relative="1" as="geometry" />
        </mxCell>
        <mxCell id="07kH8OeIRkijaCUYoFbz-29" value="a[j] = a[j+1];" style="whiteSpace=wrap;html=1;rounded=0;" vertex="1" parent="WIyWlLk6GJQsqaUBKTNV-1">
          <mxGeometry x="365" y="650" width="120" height="30" as="geometry" />
        </mxCell>
        <mxCell id="07kH8OeIRkijaCUYoFbz-32" value="}" style="text;html=1;align=center;verticalAlign=middle;resizable=0;points=[];autosize=1;strokeColor=none;fillColor=none;" vertex="1" parent="WIyWlLk6GJQsqaUBKTNV-1">
          <mxGeometry x="425" y="678" width="30" height="30" as="geometry" />
        </mxCell>
        <mxCell id="07kH8OeIRkijaCUYoFbz-37" value="" style="edgeStyle=orthogonalEdgeStyle;rounded=0;orthogonalLoop=1;jettySize=auto;html=1;" edge="1" parent="WIyWlLk6GJQsqaUBKTNV-1" source="07kH8OeIRkijaCUYoFbz-34" target="07kH8OeIRkijaCUYoFbz-36">
          <mxGeometry relative="1" as="geometry" />
        </mxCell>
        <mxCell id="07kH8OeIRkijaCUYoFbz-40" value="" style="edgeStyle=orthogonalEdgeStyle;rounded=0;orthogonalLoop=1;jettySize=auto;html=1;" edge="1" parent="WIyWlLk6GJQsqaUBKTNV-1" source="07kH8OeIRkijaCUYoFbz-34" target="07kH8OeIRkijaCUYoFbz-39">
          <mxGeometry relative="1" as="geometry" />
        </mxCell>
        <mxCell id="07kH8OeIRkijaCUYoFbz-34" value="for ( int i = 0; i &amp;lt; n; i++) {" style="shape=hexagon;perimeter=hexagonPerimeter2;whiteSpace=wrap;html=1;fixedSize=1;rounded=0;" vertex="1" parent="WIyWlLk6GJQsqaUBKTNV-1">
          <mxGeometry x="560" y="510" width="170" height="30" as="geometry" />
        </mxCell>
        <mxCell id="07kH8OeIRkijaCUYoFbz-38" style="edgeStyle=orthogonalEdgeStyle;rounded=0;orthogonalLoop=1;jettySize=auto;html=1;exitX=0.5;exitY=1;exitDx=0;exitDy=0;entryX=0;entryY=0.5;entryDx=0;entryDy=0;" edge="1" parent="WIyWlLk6GJQsqaUBKTNV-1" source="07kH8OeIRkijaCUYoFbz-36" target="07kH8OeIRkijaCUYoFbz-34">
          <mxGeometry relative="1" as="geometry" />
        </mxCell>
        <mxCell id="07kH8OeIRkijaCUYoFbz-36" value="cout&amp;lt;&amp;lt;a[i]&amp;lt;&amp;lt;&quot; &quot;;" style="shape=parallelogram;perimeter=parallelogramPerimeter;whiteSpace=wrap;html=1;fixedSize=1;rounded=0;" vertex="1" parent="WIyWlLk6GJQsqaUBKTNV-1">
          <mxGeometry x="585" y="558" width="120" height="25" as="geometry" />
        </mxCell>
        <mxCell id="07kH8OeIRkijaCUYoFbz-39" value="return 0;" style="ellipse;whiteSpace=wrap;html=1;rounded=0;" vertex="1" parent="WIyWlLk6GJQsqaUBKTNV-1">
          <mxGeometry x="750" y="558" width="80" height="55" as="geometry" />
        </mxCell>
        <mxCell id="07kH8OeIRkijaCUYoFbz-41" value="}" style="text;html=1;align=center;verticalAlign=middle;resizable=0;points=[];autosize=1;strokeColor=none;fillColor=none;" vertex="1" parent="WIyWlLk6GJQsqaUBKTNV-1">
          <mxGeometry x="645" y="588" width="30" height="30" as="geometry" />
        </mxCell>
        <mxCell id="07kH8OeIRkijaCUYoFbz-42" value="}" style="text;html=1;align=center;verticalAlign=middle;resizable=0;points=[];autosize=1;strokeColor=none;fillColor=none;" vertex="1" parent="WIyWlLk6GJQsqaUBKTNV-1">
          <mxGeometry x="795" y="508" width="30" height="30" as="geometry" />
        </mxCell>
        <mxCell id="07kH8OeIRkijaCUYoFbz-46" style="edgeStyle=orthogonalEdgeStyle;rounded=0;orthogonalLoop=1;jettySize=auto;html=1;exitX=0.5;exitY=1;exitDx=0;exitDy=0;entryX=0.5;entryY=0;entryDx=0;entryDy=0;" edge="1" parent="WIyWlLk6GJQsqaUBKTNV-1" source="07kH8OeIRkijaCUYoFbz-44" target="07kH8OeIRkijaCUYoFbz-14">
          <mxGeometry relative="1" as="geometry" />
        </mxCell>
        <mxCell id="07kH8OeIRkijaCUYoFbz-44" value="cout&amp;lt;&amp;lt;endl;" style="shape=parallelogram;perimeter=parallelogramPerimeter;whiteSpace=wrap;html=1;fixedSize=1;rounded=0;" vertex="1" parent="WIyWlLk6GJQsqaUBKTNV-1">
          <mxGeometry x="345" y="365" width="160" height="30" as="geometry" />
        </mxCell>
      </root>
    </mxGraphModel>
  </diagram>
</mxfile>
